PathFileType	4	(X/Y/Z)	/tmp/tmpjnq7zxqp/Me/MarkerData/slow walking_segment_0.trc
DataRate	CameraRate	NumFrames	NumMarkers	Units	OrigDataRate	OrigDataStartFrame	OrigNumFrames
100.092	100.092	7	38	m	100.092	0	1086
Frame#	Time	C7			CLAV			LANK			LASI			LBHD			LELB			LFHD			LFIN			LFRM			LHEE			LKNE			LPSI			LSHO			LTHI			LTIB			LTOE			LUPA			LWRA			LWRB			RANK			RBAK			RBHD			RELB			RFHD			RFIN			RFRM			RHEE			RKNE			RPSI			RSHO			RTHI			RTIB			RTOE			RUPA			RWRA			RWRB			STRN			T10		
		X1	Y1	Z1	X2	Y2	Z2	X3	Y3	Z3	X4	Y4	Z4	X5	Y5	Z5	X6	Y6	Z6	X7	Y7	Z7	X8	Y8	Z8	X9	Y9	Z9	X10	Y10	Z10	X11	Y11	Z11	X12	Y12	Z12	X13	Y13	Z13	X14	Y14	Z14	X15	Y15	Z15	X16	Y16	Z16	X17	Y17	Z17	X18	Y18	Z18	X19	Y19	Z19	X20	Y20	Z20	X21	Y21	Z21	X22	Y22	Z22	X23	Y23	Z23	X24	Y24	Z24	X25	Y25	Z25	X26	Y26	Z26	X27	Y27	Z27	X28	Y28	Z28	X29	Y29	Z29	X30	Y30	Z30	X31	Y31	Z31	X32	Y32	Z32	X33	Y33	Z33	X34	Y34	Z34	X35	Y35	Z35	X36	Y36	Z36	X37	Y37	Z37	X38	Y38	Z38

1	0	0.00868459	1.45675	-0.120459	-0.146013	1.36816	-0.0804451	-0.279803	0.109914	0.0898604	-0.0585591	0.987787	0.0686337	-0.102785	1.59136	-0.00786311	0.0724957	1.09545	0.136503	-0.232892	1.61212	-0.0131865	0.0763394	0.758024	0.114607	0.113624	0.943249	0.113419	-0.23008	0.0611738	0.020425	-0.217423	0.502122	0.0910564	0.0708539	0.995935	-0.0675885	-0.020835	1.43554	0.0661972	-0.152438	0.677461	0.112692	-0.231355	0.257881	0.105121	-0.453892	0.126595	0.066617	0.0153993	1.27283	0.148128	0.0504266	0.850361	0.0771446	0.113996	0.852379	0.115977	0.14132	0.101174	-0.174229	0.0351104	1.32349	-0.250621	-0.108723	1.59744	-0.157345	-0.19704	1.10087	-0.358862	-0.232333	1.60952	-0.143216	-0.401127	0.826149	-0.30403	-0.236207	1.0195	-0.355496	0.220851	0.067725	-0.111956	-0.00120714	0.48373	-0.206035	0.0633537	0.993093	-0.130103	-0.107373	1.43084	-0.268032	-0.0973141	0.799892	-0.259439	0.0699391	0.373907	-0.227266	-0.0169956	0.0604077	-0.117757	-0.177912	1.19692	-0.342529	-0.331293	0.905937	-0.262011	-0.320682	0.876868	-0.328482	-0.172864	1.21006	-0.0644938	0.0685657	1.23062	-0.127458
2	0.00999079	0.00947926	1.45547	-0.119307	-0.14551	1.36711	-0.0793171	-0.290109	0.111231	0.09097	-0.0586516	0.986105	0.0695822	-0.101238	1.59035	-0.00662021	0.0720444	1.09366	0.13804	-0.231205	1.61207	-0.0118456	0.0755352	0.75616	0.116535	0.112942	0.941369	0.115315	-0.241464	0.0603796	0.0219966	-0.215559	0.500426	0.0898554	0.0710193	0.994945	-0.0663031	-0.0205174	1.43376	0.0672714	-0.150677	0.674905	0.112791	-0.236682	0.257594	0.105232	-0.463505	0.133366	0.0656154	0.0155267	1.27111	0.149347	0.0502012	0.848591	0.078852	0.113431	0.850446	0.118132	0.148653	0.101898	-0.174518	0.0356531	1.32241	-0.249585	-0.107216	1.59644	-0.156077	-0.196356	1.09964	-0.357212	-0.230656	1.60941	-0.141775	-0.399544	0.824486	-0.301541	-0.23521	1.0182	-0.353822	0.228477	0.0686811	-0.112187	0.00282166	0.483451	-0.206014	0.063774	0.992456	-0.128842	-0.106821	1.42985	-0.266891	-0.0958723	0.798794	-0.259063	0.0750274	0.374325	-0.227336	-0.00907049	0.060304	-0.117904	-0.177146	1.19578	-0.341168	-0.329756	0.90453	-0.259999	-0.319217	0.875389	-0.326449	-0.17265	1.20899	-0.0635277	0.0690433	1.22927	-0.126592
3	0.0199816	0.010188	1.4542	-0.118068	-0.145033	1.3661	-0.0781511	-0.299606	0.112598	0.0916483	-0.0589442	0.984459	0.0706367	-0.0997746	1.58933	-0.00535263	0.0714593	1.09183	0.139764	-0.229573	1.61196	-0.0105127	0.0745136	0.754392	0.118877	0.112088	0.939458	0.117467	-0.251812	0.0598203	0.0233562	-0.21363	0.498811	0.0887378	0.0710335	0.994016	-0.0648905	-0.0199514	1.43233	0.0685785	-0.148866	0.672343	0.112655	-0.241531	0.257399	0.105279	-0.472127	0.139566	0.0642894	0.0155674	1.26939	0.150671	0.0499061	0.846842	0.0807512	0.112316	0.848562	0.120582	0.155935	0.102766	-0.174961	0.0361369	1.32122	-0.248384	-0.105783	1.59544	-0.154792	-0.195469	1.09852	-0.356154	-0.229078	1.60928	-0.140312	-0.397631	0.82262	-0.299099	-0.234059	1.01684	-0.352168	0.236033	0.0698113	-0.112448	0.00670992	0.483215	-0.206008	0.0640464	0.991766	-0.127464	-0.106274	1.42887	-0.26572	-0.0945576	0.797872	-0.258537	0.0800049	0.374783	-0.227399	-0.00118327	0.0601607	-0.118085	-0.176434	1.19457	-0.339666	-0.32791	0.902929	-0.25795	-0.317608	0.873827	-0.324455	-0.172523	1.20792	-0.0624854	0.0694258	1.22787	-0.125651
4	0.0299724	0.0108201	1.45292	-0.116733	-0.14468	1.3651	-0.0769201	-0.308307	0.11383	0.0916231	-0.05942	0.982837	0.0717792	-0.0984041	1.58833	-0.00402329	0.0707002	1.08998	0.141678	-0.228047	1.61184	-0.0091736	0.0732493	0.752678	0.121649	0.111054	0.93753	0.119838	-0.261337	0.0592814	0.0245159	-0.211828	0.49717	0.0878465	0.0709599	0.993109	-0.0633731	-0.0192512	1.4309	0.0699668	-0.147264	0.669927	0.112571	-0.245764	0.257274	0.105213	-0.479665	0.145138	0.0627353	0.0154492	1.26767	0.152112	0.0487229	0.84491	0.0831889	0.111106	0.846623	0.123258	0.163192	0.103837	-0.175586	0.0365488	1.31995	-0.247026	-0.104426	1.59443	-0.153461	-0.194423	1.09724	-0.354734	-0.227682	1.60912	-0.139065	-0.395444	0.820581	-0.296718	-0.232726	1.0154	-0.350516	0.243542	0.0711007	-0.112734	0.0104563	0.483027	-0.206027	0.0641833	0.99106	-0.126035	-0.105734	1.42789	-0.264492	-0.0933308	0.797067	-0.257902	0.0848678	0.375316	-0.227462	0.00670877	0.0599979	-0.11829	-0.175765	1.19333	-0.338027	-0.325785	0.901116	-0.255898	-0.315784	0.872143	-0.322508	-0.172516	1.20685	-0.0613575	0.0697345	1.22645	-0.124582
5	0.0399632	0.0113561	1.45165	-0.1153	-0.144378	1.36412	-0.0756405	-0.315702	0.114839	0.0914299	-0.059978	0.981309	0.0729628	-0.0971403	1.58735	-0.00261694	0.0697509	1.08812	0.143771	-0.226646	1.61171	-0.00778621	0.0716492	0.750772	0.124638	0.109788	0.935574	0.122394	-0.269605	0.0588187	0.0253047	-0.2106	0.495631	0.0872109	0.0707907	0.992179	-0.0617773	-0.0188187	1.4293	0.0713725	-0.145928	0.66768	0.112601	-0.249228	0.257125	0.105011	-0.485998	0.150075	0.0611129	0.0151428	1.26593	0.153675	0.047876	0.843083	0.0856269	0.109499	0.844658	0.126089	0.170328	0.104876	-0.176146	0.0369199	1.31864	-0.245517	-0.10316	1.59343	-0.152049	-0.193225	1.09581	-0.352979	-0.226337	1.60896	-0.137739	-0.392959	0.818335	-0.294392	-0.231203	1.01388	-0.34879	0.251045	0.0725849	-0.113054	0.0140144	0.482897	-0.206045	0.0642092	0.990345	-0.124528	-0.105202	1.42691	-0.263217	-0.0922417	0.796412	-0.257212	0.0895955	0.375927	-0.227516	0.0146387	0.0598158	-0.118499	-0.174892	1.19207	-0.336541	-0.323495	0.899159	-0.253976	-0.313677	0.870299	-0.320661	-0.172579	1.20578	-0.0601806	0.0699526	1.22502	-0.123363
6	0.049954	0.011825	1.45042	-0.113767	-0.144134	1.36317	-0.0743147	-0.32164	0.115231	0.0913472	-0.0603341	0.979929	0.0740395	-0.0959846	1.58639	-0.00113567	0.0686161	1.08626	0.146038	-0.225372	1.61161	-0.00635646	0.0698262	0.748858	0.1278	0.108282	0.933595	0.125176	-0.276192	0.0583467	0.0255163	-0.210013	0.494384	0.0866834	0.0705242	0.991277	-0.0601402	-0.0183536	1.42772	0.0728796	-0.14494	0.665608	0.11271	-0.251884	0.256852	0.104659	-0.490853	0.154278	0.0594503	0.0146884	1.26423	0.155429	0.046388	0.841122	0.0884641	0.107734	0.842676	0.129148	0.177398	0.105895	-0.176634	0.0375194	1.31751	-0.243917	-0.102026	1.59241	-0.150512	-0.191939	1.09437	-0.351178	-0.225051	1.6088	-0.136327	-0.390152	0.815877	-0.292131	-0.22945	1.01228	-0.346927	0.258506	0.0742733	-0.113439	0.0173892	0.482809	-0.206026	0.0641335	0.989605	-0.122965	-0.104719	1.42593	-0.261891	-0.091299	0.795859	-0.256459	0.094174	0.376633	-0.227568	0.0226563	0.0596319	-0.11867	-0.17387	1.1908	-0.335058	-0.320852	0.896972	-0.252018	-0.311244	0.868278	-0.318925	-0.172721	1.20471	-0.0589795	0.0700775	1.22361	-0.121988
7	0.0599448	0.0122274	1.44922	-0.112138	-0.143996	1.36224	-0.0729039	-0.325917	0.114966	0.0908707	-0.0603629	0.978653	0.074958	-0.0949635	1.58548	0.000406124	0.0672847	1.08441	0.148456	-0.224201	1.61156	-0.00489254	0.0677856	0.747024	0.131214	0.106454	0.931636	0.128196	-0.281103	0.0573727	0.0251704	-0.210069	0.493371	0.0864482	0.0701616	0.990395	-0.0584984	-0.0182347	1.42625	0.0745261	-0.144356	0.66374	0.112924	-0.253845	0.256294	0.104143	-0.494002	0.157523	0.0576475	0.0141485	1.26265	0.157602	0.0442226	0.839035	0.0916771	0.105841	0.840785	0.132314	0.184339	0.107007	-0.177079	0.0380581	1.31638	-0.2422	-0.101055	1.59141	-0.148839	-0.190757	1.09307	-0.34973	-0.223814	1.60864	-0.134845	-0.387057	0.813258	-0.289998	-0.22751	1.01062	-0.34497	0.265923	0.0761866	-0.113868	0.0206156	0.482771	-0.205991	0.0639702	0.988845	-0.121392	-0.104259	1.42499	-0.260502	-0.0906157	0.795123	-0.255692	0.0985742	0.377437	-0.22763	0.0307401	0.0594658	-0.118828	-0.172812	1.18953	-0.333473	-0.318074	0.894718	-0.250195	-0.308474	0.866106	-0.317255	-0.172938	1.20368	-0.0577449	0.0701306	1.22225	-0.120447
